<?xml version="1.0" encoding="UTF-8"?>
<svg version="1.1" xmlns="http://www.w3.org/2000/svg" width="1024" height="1024">
<path d="M0 0 C337.92 0 675.84 0 1024 0 C1024 337.92 1024 675.84 1024 1024 C686.08 1024 348.16 1024 0 1024 C0 686.08 0 348.16 0 0 Z " fill="#FDFDFD" transform="translate(0,0)"/>
<path d="M0 0 C0.81959198 -0.00014603 1.63918396 -0.00029205 2.48361206 -0.0004425 C5.19987612 0.00025565 7.9160721 0.00804351 10.63232422 0.01586914 C12.51276614 0.01773367 14.39320854 0.01915741 16.27365112 0.02015686 C21.22863094 0.02397932 26.18358155 0.03380731 31.1385498 0.04486084 C36.19246017 0.05508078 41.24637525 0.05965573 46.30029297 0.06469727 C56.22087873 0.0754298 66.1414428 0.09250299 76.06201172 0.11352539 C76.06298853 0.7960618 76.06396534 1.4785982 76.06497175 2.18181753 C76.12324018 42.63193829 76.19703425 83.08200405 76.290998 123.53205833 C76.3022662 128.38864084 76.31340465 133.24522364 76.32446289 138.10180664 C76.32666657 139.06866734 76.32887026 140.03552805 76.33114072 141.03168756 C76.36651583 156.68820174 76.39137876 172.34471588 76.41235874 188.00125521 C76.43411908 204.06558213 76.46717174 220.12985717 76.51071328 236.19413996 C76.53722595 246.10714245 76.55492416 256.0200803 76.56135776 265.9331165 C76.56661281 272.73029489 76.58283375 279.52739193 76.60767738 286.32452673 C76.62168834 290.24647353 76.6308647 294.16827472 76.62701988 298.09024811 C76.62360456 301.68307921 76.63400356 305.27559954 76.65524723 308.86836702 C76.66299231 310.77915885 76.65608052 312.68999287 76.64859468 314.60078573 C76.70310417 321.19820461 77.31926037 326.10270503 80.06201172 332.11352539 C80.53587985 333.44404442 80.99689073 334.77926356 81.44067383 336.12011719 C81.66778549 336.79830002 81.89489716 337.47648285 82.12889099 338.17521667 C82.48057091 339.23329277 82.48057091 339.23329277 82.83935547 340.31274414 C83.09197647 341.06965042 83.34459747 341.8265567 83.60487366 342.60639954 C84.13583817 344.19861718 84.66605616 345.79108395 85.19555664 347.38378906 C85.99191173 349.77817465 86.79143731 352.17148434 87.59130859 354.56469727 C90.1652861 362.28307506 92.67522819 370.01242492 95.04516602 377.79638672 C96.90260756 383.85570443 98.82510262 389.89303437 100.78881836 395.91870117 C101.26664544 397.39436776 101.7385603 398.87196058 102.20483398 400.35131836 C102.89150327 402.5270034 103.59768391 404.69549716 104.30810547 406.86352539 C104.5103624 407.51877197 104.71261932 408.17401855 104.92100525 408.84912109 C106.42806337 413.35229011 108.43142599 416.07365849 112.06201172 419.11352539 C114.57683126 419.78356758 114.57683126 419.78356758 117.12451172 419.55102539 C117.96111328 419.52911133 118.79771484 419.50719727 119.65966797 419.48461914 C122.25464875 419.08376845 123.83169619 418.48999439 126.06201172 417.11352539 C130.05375 410.92328725 131.91607737 402.93711308 134.18701172 395.98852539 C134.57244141 394.8205542 134.95787109 393.65258301 135.35498047 392.44921875 C141.51508249 373.73515438 141.51508249 373.73515438 147.47062778 354.9555397 C148.61898476 351.3557434 149.91579081 347.83385318 151.26016903 344.30288315 C157.75995299 326.63756992 159.36932814 310.39632466 159.1911453 291.6408453 C159.16404897 287.70938252 159.19015415 283.77817188 159.20907593 279.84671021 C159.23474227 273.0709048 159.22835389 266.29577792 159.19877815 259.51999664 C159.15606829 249.7240797 159.16390096 239.92868732 159.1831935 230.13271961 C159.21317763 214.23103582 159.20354071 198.32964169 159.16821289 182.42797852 C159.13402736 167.00150083 159.11908582 151.57519647 159.12915039 136.14868164 C159.12975592 135.18454959 159.13036144 134.22041755 159.13098532 133.22706938 C159.13587047 125.68442276 159.14185452 118.14177711 159.14818513 110.59913158 C159.17881578 73.77040148 159.11379586 36.94241011 159.06201172 0.11352539 C232.32201172 0.11352539 305.58201172 0.11352539 381.06201172 0.11352539 C381.06201172 211.31352539 381.06201172 422.51352539 381.06201172 640.11352539 C317.35138672 640.19602539 253.64076172 640.27852539 187.99951172 640.36352539 C167.85911865 640.39994141 147.71872559 640.43635742 126.96801758 640.47387695 C102.4342041 640.49194336 102.4342041 640.49194336 90.96046448 640.49530029 C82.92155808 640.49903721 74.88276231 640.51373839 66.84388733 640.53582764 C57.57733223 640.56125275 48.31088358 640.57287768 39.04429332 640.56730519 C34.30195188 640.56489091 29.55984852 640.56877279 24.81755054 640.59038591 C20.53064733 640.60980521 16.24415127 640.61084937 11.95722961 640.59712982 C10.40619833 640.59543104 8.85514184 640.60052667 7.30416024 640.61305571 C-7.13352021 640.72284566 -7.13352021 640.72284566 -12.93798828 636.11352539 C-15.76441209 632.64744586 -15.20539831 628.31573535 -15.16503906 624.0402832 C-15.16533112 623.23015274 -15.16562317 622.42002228 -15.16592407 621.58534241 C-15.16453271 618.91233545 -15.14898066 616.23960855 -15.13330078 613.56665039 C-15.12956996 611.71148837 -15.12672331 609.85632437 -15.12472534 608.00115967 C-15.11709432 603.12179104 -15.09745035 598.24254174 -15.07531738 593.36322021 C-15.05484755 588.38286961 -15.04572119 583.4024997 -15.03564453 578.42211914 C-15.01420399 568.6525355 -14.9800744 558.88304038 -14.93798828 549.11352539 C-13.71281494 549.09165161 -13.71281494 549.09165161 -12.46289062 549.06933594 C-8.74579068 548.99465616 -5.02956909 548.89805927 -1.31298828 548.80102539 C0.61480469 548.7671875 0.61480469 548.7671875 2.58154297 548.73266602 C3.82548828 548.6972168 5.06943359 548.66176758 6.35107422 548.62524414 C7.4927002 548.59906006 8.63432617 548.57287598 9.81054688 548.54589844 C14.29630823 547.9493912 17.72278674 546.47540111 20.90966797 543.23461914 C23.01142284 539.36596526 22.6846328 535.38193883 22.06201172 531.11352539 C19.51674729 526.58861085 18.06922804 526.11641192 13.06201172 524.11352539 C3.82201172 523.78352539 -5.41798828 523.45352539 -14.93798828 523.11352539 C-14.93798828 494.73352539 -14.93798828 466.35352539 -14.93798828 437.11352539 C-5.69798828 436.78352539 3.54201172 436.45352539 13.06201172 436.11352539 C19.26990552 433.34709927 19.26990552 433.34709927 22.06201172 428.11352539 C22.73567093 423.53929621 22.70447861 420.23189368 20.37451172 416.17602539 C10.98920409 407.80534561 -3.61698409 411.51784697 -14.93798828 411.11352539 C-14.93798828 382.73352539 -14.93798828 354.35352539 -14.93798828 325.11352539 C-5.69798828 324.78352539 3.54201172 324.45352539 13.06201172 324.11352539 C19.26990552 321.34709927 19.26990552 321.34709927 22.06201172 316.11352539 C22.73567093 311.53929621 22.70447861 308.23189368 20.37451172 304.17602539 C10.98920409 295.80534561 -3.61698409 299.51784697 -14.93798828 299.11352539 C-14.93798828 270.73352539 -14.93798828 242.35352539 -14.93798828 213.11352539 C-5.69798828 212.78352539 3.54201172 212.45352539 13.06201172 212.11352539 C18.81188382 209.55330925 18.81188382 209.55330925 22.06201172 205.11352539 C22.91822002 200.36966857 22.74607358 196.32963537 20.37451172 192.11352539 C10.84183983 183.8690524 -3.37930559 187.52633549 -14.93798828 187.11352539 C-14.93798828 158.73352539 -14.93798828 130.35352539 -14.93798828 101.11352539 C-5.69798828 100.78352539 3.54201172 100.45352539 13.06201172 100.11352539 C18.81188382 97.55330925 18.81188382 97.55330925 22.06201172 93.11352539 C22.92836537 88.31345787 22.78418749 84.30885081 20.24951172 80.11352539 C16.11910221 76.33715098 13.71469222 75.83890971 8.20654297 75.69946289 C7.54490646 75.68009674 6.88326996 75.66073059 6.20158386 75.64077759 C4.09269008 75.58109852 1.98374135 75.53464452 -0.12548828 75.48852539 C-1.55715243 75.45033473 -2.98879387 75.41128236 -4.42041016 75.37133789 C-7.9260614 75.27540766 -11.43188273 75.19133342 -14.93798828 75.11352539 C-15.05400391 66.3511626 -15.14276452 57.58906548 -15.19704914 48.8261013 C-15.22310754 44.75675643 -15.25843533 40.68793825 -15.31518555 36.61889648 C-15.36964179 32.68960036 -15.39943708 28.76080977 -15.4123745 24.83116531 C-15.42159019 23.33443878 -15.43958691 21.83773891 -15.46663857 20.34122849 C-15.69577457 7.13627129 -15.69577457 7.13627129 -12.5324707 3.2097168 C-8.31689313 -0.19622552 -5.23715605 -0.02419338 0 0 Z " fill="#FDFDFD" transform="translate(293.93798828125,213.886474609375)"/>
<path d="M0 0 C9.63546738 6.67070818 17.05127371 14.60213444 19.6875 26.4375 C20.47032227 31.01083009 20.30082116 35.62527406 20.25 40.25 C20.89437012 40.22905273 21.53874023 40.20810547 22.20263672 40.18652344 C25.17659332 40.10239002 28.15029842 40.05103655 31.125 40 C32.13820313 39.96648437 33.15140625 39.93296875 34.1953125 39.8984375 C44.15881557 39.77070028 52.08697169 42.29136489 59.42578125 49.18359375 C64.96054117 55.4531612 68.3988323 61.84150335 68.34765625 70.234375 C68.34443359 71.16894531 68.34121094 72.10351562 68.33789062 73.06640625 C68.32951172 74.03449219 68.32113281 75.00257813 68.3125 76 C68.30798828 76.98355469 68.30347656 77.96710938 68.29882812 78.98046875 C68.28706483 81.40370791 68.27062684 83.82682273 68.25 86.25 C69.1298375 86.24829126 69.1298375 86.24829126 70.02744949 86.246548 C104.80768699 86.17938348 139.58791152 86.12792502 174.36820012 86.09680401 C178.5462481 86.09305199 182.72429596 86.08916901 186.90234375 86.08520508 C187.73410217 86.08441815 188.56586058 86.08363122 189.4228238 86.08282044 C202.88262994 86.06977391 216.34239757 86.04612422 229.80218087 86.01854161 C243.61775836 85.99046645 257.43331571 85.97381928 271.24892056 85.96773452 C279.77081562 85.96362245 288.29260179 85.95064451 296.81446333 85.9262506 C302.66177359 85.91036735 308.50902772 85.90560549 314.35635798 85.90949587 C317.72775733 85.91141342 321.09881384 85.90686617 324.47020531 85.89238358 C328.13213292 85.87742558 331.79359722 85.88105898 335.45553589 85.88923645 C336.51198205 85.88049793 337.56842821 85.8717594 338.65688789 85.86275607 C350.35092358 85.93318533 359.47429806 89.15595822 368.19140625 96.99609375 C380.22177611 109.49416698 378.96078436 124.32153275 378.87818909 140.53627014 C378.88323657 143.13741639 378.89046695 145.73855916 378.89968723 148.33969396 C378.9161597 153.98618807 378.9141637 159.63243788 378.89986038 165.27893448 C378.87864918 173.67551198 378.88614646 182.07189549 378.8992356 190.46848081 C378.92167161 205.46633273 378.91570882 220.46407183 378.8977995 235.46192384 C378.88222471 248.58624863 378.87638127 261.71053387 378.8801403 274.83486748 C378.88049551 276.14133331 378.88049551 276.14133331 378.88085788 277.4741924 C378.88183282 281.00986979 378.88285364 284.54554717 378.88394299 288.08122454 C378.89402299 321.23924816 378.87576957 354.39720235 378.84422263 387.55520964 C378.81636011 417.00826654 378.81139985 446.46124088 378.82641602 475.91430664 C378.83023852 483.45717139 378.83403333 491.00003615 378.8375864 498.54290104 C378.83802422 499.47154391 378.83846203 500.40018678 378.83891311 501.35697034 C378.85015463 525.97541918 378.8428028 550.59386196 378.82970566 575.21230882 C378.8283171 577.86149082 378.82693639 580.51067283 378.82556724 583.15985484 C378.82465785 584.91721442 378.82373518 586.674574 378.82279913 588.43193358 C378.8160056 601.54807099 378.81866151 614.66418456 378.82574654 627.78032112 C378.83371486 642.69445174 378.8271402 657.60849929 378.8015715 672.52261169 C378.78765455 680.86766117 378.78465827 689.21254335 378.7975062 697.55759551 C378.80585175 703.7887587 378.79327515 710.01971491 378.77253198 716.25084548 C378.76736685 718.77152256 378.76894494 721.29222429 378.77792663 723.81289066 C378.78912047 727.2392738 378.77568332 730.66472389 378.75615788 734.09105015 C378.76523669 735.06946046 378.77431551 736.04787076 378.78366944 737.05592987 C378.66853381 747.42230124 375.15056811 757.40171439 368.25 765.25 C356.20840121 775.95827297 343.36048898 775.69032717 328.10830688 775.65113831 C326.04169987 775.65674669 323.97509603 775.66365042 321.90849721 775.67173427 C316.24203293 775.69005708 310.57570164 775.68969122 304.9092145 775.68615115 C298.79320009 775.68553835 292.6772281 775.70210267 286.56123352 775.71632385 C274.58431591 775.74122696 262.60745467 775.7495265 250.63051797 775.75116099 C240.89544046 775.75254084 231.16037727 775.75872224 221.42530441 775.76826286 C218.62075247 775.77095557 215.81620051 775.77362502 213.01164854 775.7762875 C211.96575906 775.77728221 211.96575906 775.77728221 210.8987405 775.77829702 C191.29368392 775.79675236 171.68863232 775.80859943 152.08356667 775.80726719 C151.34481646 775.80722045 150.60606625 775.80717372 149.84492967 775.80712556 C146.10082229 775.80687625 142.35671492 775.80657913 138.61260755 775.80627144 C137.86904255 775.80621161 137.12547754 775.80615177 136.35938026 775.80609012 C134.8557123 775.80596881 133.35204434 775.80584342 131.84837638 775.80571395 C108.45094501 775.80387547 85.05364405 775.82640238 61.65625 775.86743164 C35.35677547 775.91353117 9.05738661 775.93932938 -17.24213088 775.93654197 C-20.04731154 775.93631809 -22.85249221 775.93617196 -25.65767288 775.93607903 C-26.34835719 775.93604406 -27.0390415 775.9360091 -27.75065564 775.93597308 C-38.85557175 775.93588084 -49.96037443 775.95502113 -61.06525684 775.98087582 C-72.22827689 776.00632815 -83.39113328 776.00874339 -94.55418085 775.98954786 C-100.59928213 775.97974763 -106.64397308 775.97959801 -112.68903542 776.0056076 C-118.22598108 776.02918592 -123.76219065 776.02492711 -129.29911824 775.99875521 C-131.29902288 775.99414645 -133.29898229 775.99961332 -135.29882233 776.01633544 C-146.61801162 776.1046937 -155.09444726 775.75682565 -164.75 769.25 C-165.44864524 768.79325836 -166.14729048 768.33651672 -166.8671068 767.86593443 C-173.0563193 763.5639347 -177.42124421 755.23153054 -179.32933044 748.07807922 C-179.88530988 744.34033813 -179.88096803 740.64849468 -179.86352539 736.87963867 C-179.86367142 736.04985504 -179.86381744 735.22007141 -179.8639679 734.36514282 C-179.86327333 731.63272453 -179.85550229 728.90037508 -179.84765625 726.16796875 C-179.84579045 724.2693943 -179.84436731 722.37081937 -179.84336853 720.47224426 C-179.8395561 715.48278466 -179.8297367 710.49335432 -179.81866455 705.50390625 C-179.80842303 700.40950923 -179.80386504 695.31510748 -179.79882812 690.22070312 C-179.78811328 680.23045592 -179.77105216 670.2402304 -179.75 660.25 C-180.89214966 660.26571045 -180.89214966 660.26571045 -182.05737305 660.28173828 C-185.5173816 660.32339019 -188.97733731 660.3493556 -192.4375 660.375 C-193.63568359 660.39175781 -194.83386719 660.40851562 -196.06835938 660.42578125 C-197.80375977 660.43544922 -197.80375977 660.43544922 -199.57421875 660.4453125 C-201.16882935 660.46102295 -201.16882935 660.46102295 -202.7956543 660.47705078 C-207.47773557 660.11721807 -210.06336113 658.86034566 -213.5625 655.75 C-216.26068457 652.25520856 -216.46347517 648.97786802 -216.2421875 644.65625 C-215.42420138 640.65720673 -213.75943294 638.98584813 -210.75 636.25 C-201.48837067 631.61918534 -190.10481638 634.25 -179.75 634.25 C-179.75 605.87 -179.75 577.49 -179.75 548.25 C-188.99 548.25 -198.23 548.25 -207.75 548.25 C-213.85804851 544.58517089 -213.85804851 544.58517089 -215.75 541.25 C-216.53623141 536.91262337 -216.763156 532.28837339 -214.765625 528.26953125 C-212.38966861 525.29958576 -210.17047354 523.96023677 -206.75 522.25 C-197.84 522.25 -188.93 522.25 -179.75 522.25 C-179.75 493.87 -179.75 465.49 -179.75 436.25 C-188.99 436.25 -198.23 436.25 -207.75 436.25 C-215.56162444 429.55432191 -215.56162444 429.55432191 -216.05859375 426.11328125 C-216.30728899 421.19213007 -216.18214067 418.05858119 -212.9375 414.1875 C-210.79195805 411.93600536 -209.78652974 411.26217658 -206.75 410.25 C-197.84 410.25 -188.93 410.25 -179.75 410.25 C-179.75 381.87 -179.75 353.49 -179.75 324.25 C-188.33 324.25 -196.91 324.25 -205.75 324.25 C-213.45588235 320.39705882 -213.45588235 320.39705882 -215.75 316.25 C-216.60994099 311.8835755 -216.76537954 308.01656942 -214.50390625 304.08203125 C-212.04162264 301.10395756 -210.46792767 299.48930922 -206.75 298.25 C-197.84 298.25 -188.93 298.25 -179.75 298.25 C-179.75 269.87 -179.75 241.49 -179.75 212.25 C-188.66 212.25 -197.57 212.25 -206.75 212.25 C-215.24510763 206.58659491 -215.24510763 206.58659491 -216.25390625 201.91796875 C-216.36935456 197.03065684 -216.10170014 194.00589332 -212.875 190.1875 C-210.27474242 187.51815345 -208.78239047 186.2918975 -204.95263672 186.13647461 C-203.79006348 186.14171143 -202.62749023 186.14694824 -201.4296875 186.15234375 C-200.17285156 186.15556641 -198.91601562 186.15878906 -197.62109375 186.16210938 C-196.30238281 186.17048828 -194.98367187 186.17886719 -193.625 186.1875 C-192.28515789 186.19251511 -190.945314 186.19707799 -189.60546875 186.20117188 C-186.32026794 186.21298914 -183.03515603 186.22946383 -179.75 186.25 C-179.75666183 185.39302017 -179.76332367 184.53604034 -179.77018738 183.65309143 C-179.83048507 175.54732989 -179.87606885 167.44164449 -179.90543652 159.33570957 C-179.92104268 155.16910233 -179.94218772 151.00268158 -179.97631836 146.83618164 C-180.00909322 142.80964786 -180.02689092 138.78329262 -180.03463173 134.75663567 C-180.0401429 133.22615692 -180.05090435 131.69568712 -180.06719017 130.16528511 C-180.19777889 117.37637997 -178.85681937 106.68294492 -169.70703125 97.11328125 C-161.68703779 89.6454388 -154.26572282 86.08821449 -143.23950195 86.13647461 C-142.37099609 86.13632858 -141.50249023 86.13618256 -140.60766602 86.1360321 C-137.73451243 86.13672924 -134.86142352 86.14451239 -131.98828125 86.15234375 C-129.99716731 86.15420863 -128.00605292 86.15563221 -126.01493835 86.15663147 C-120.77227514 86.1604511 -115.52963959 86.17027668 -110.2869873 86.18133545 C-104.93807347 86.19156146 -99.58915517 86.19613165 -94.24023438 86.20117188 C-83.74347742 86.21189942 -73.24674101 86.22896923 -62.75 86.25 C-62.76110306 85.53749084 -62.77220612 84.82498169 -62.78364563 84.09088135 C-62.88447361 77.32534057 -62.96027935 70.5599143 -63.00906086 63.7938118 C-63.03498499 60.31647539 -63.07005929 56.83976767 -63.12719727 53.36279297 C-63.19269688 49.35118107 -63.21632183 45.34021341 -63.23828125 41.328125 C-63.26408768 40.09950745 -63.2898941 38.87088989 -63.31648254 37.6050415 C-63.32037383 25.4432525 -59.36354999 14.98108381 -50.75 6.25 C-36.4507256 -6.06937487 -17.05030434 -8.92927902 0 0 Z M-152.75 116.25 C-154.1778535 119.10570699 -153.86941486 121.52714356 -153.86352539 124.71923828 C-153.86367142 125.38277313 -153.86381744 126.04630798 -153.8639679 126.72994995 C-153.86327031 128.92677053 -153.85548514 131.1235067 -153.84765625 133.3203125 C-153.84579152 134.84203037 -153.84436788 136.36374884 -153.84336853 137.88546753 C-153.83954767 141.89351047 -153.82972104 145.90151726 -153.81866455 149.9095459 C-153.80844118 153.99828604 -153.80386892 158.08703201 -153.79882812 162.17578125 C-153.7880984 170.20053744 -153.77102713 178.22526422 -153.75 186.25 C-152.87263184 186.25410889 -151.99526367 186.25821777 -151.09130859 186.26245117 C-147.81413123 186.28953349 -144.53879541 186.33871898 -141.26220703 186.40258789 C-139.84826063 186.42568526 -138.43414421 186.44014419 -137.02001953 186.44555664 C-123.74612094 186.50636026 -123.74612094 186.50636026 -119.8515625 189.67578125 C-116.48590093 193.79840388 -116.40862013 196.56078151 -116.46875 201.76953125 C-116.87096919 205.31688108 -118.07580392 206.93718177 -120.75 209.25 C-131.00536025 213.3521441 -142.71167649 211.85577416 -153.75 212.25 C-153.75 240.63 -153.75 269.01 -153.75 298.25 C-144.51 298.58 -135.27 298.91 -125.75 299.25 C-118.61472819 302.8176359 -118.61472819 302.8176359 -116.75 306.25 C-115.8937917 310.99385682 -116.06593814 315.03389003 -118.4375 319.25 C-127.97017189 327.49447299 -142.19131731 323.8371899 -153.75 324.25 C-153.75 352.63 -153.75 381.01 -153.75 410.25 C-144.51 410.58 -135.27 410.91 -125.75 411.25 C-118.30172414 414.97413793 -118.30172414 414.97413793 -116.75 418.25 C-116.1737307 422.51599354 -116.30077542 426.10198163 -117.875 430.125 C-119.75 432.25 -119.75 432.25 -125.75 435.25 C-134.99 435.58 -144.23 435.91 -153.75 436.25 C-153.75 464.63 -153.75 493.01 -153.75 522.25 C-144.51 522.58 -135.27 522.91 -125.75 523.25 C-118.30172414 526.97413793 -118.30172414 526.97413793 -116.75 530.25 C-116.1737307 534.51599354 -116.30077542 538.10198163 -117.875 542.125 C-119.75 544.25 -119.75 544.25 -125.75 547.25 C-134.99 547.58 -144.23 547.91 -153.75 548.25 C-153.75 576.63 -153.75 605.01 -153.75 634.25 C-144.51 634.58 -135.27 634.91 -125.75 635.25 C-118.61472819 638.8176359 -118.61472819 638.8176359 -116.75 642.25 C-115.8937917 646.99385682 -116.06593814 651.03389003 -118.4375 655.25 C-122.74818064 658.97815623 -126.77108494 659.51085164 -132.36328125 659.6640625 C-134.2340332 659.72207031 -134.2340332 659.72207031 -136.14257812 659.78125 C-137.43615234 659.8121875 -138.72972656 659.843125 -140.0625 659.875 C-142.03186523 659.93300781 -142.03186523 659.93300781 -144.04101562 659.9921875 C-147.27720437 660.08633117 -150.51338935 660.17196352 -153.75 660.25 C-153.79632182 671.00275471 -153.83186845 681.75548572 -153.85362434 692.50831985 C-153.86406559 697.50118787 -153.87823107 702.49398766 -153.90087891 707.48681641 C-153.92259505 712.30434592 -153.93456606 717.12180978 -153.93975449 721.93938446 C-153.94345244 723.77820621 -153.95067354 725.61702434 -153.96146011 727.45581818 C-153.97595867 730.02954399 -153.97797863 732.60299779 -153.97705078 735.17675781 C-153.98424133 735.93848801 -153.99143188 736.7002182 -153.99884033 737.48503113 C-154.07011319 742.75383571 -154.07011319 742.75383571 -151.75 747.25 C-145.00045387 752.60980548 -137.422033 751.79730585 -129.21620178 751.73101807 C-127.61772386 751.73276881 -126.01924706 751.73627842 -124.42077637 751.74139404 C-120.02586084 751.75036018 -115.63133556 751.73432061 -111.23646958 751.71429092 C-106.42534286 751.69682375 -101.61423413 751.7026694 -96.80308437 751.70556259 C-87.46385598 751.70768929 -78.12478142 751.68921953 -68.78559255 751.66355728 C-57.98298237 751.63476219 -47.18046465 751.63157856 -36.37780762 751.62841797 C-7.85601402 751.60741486 20.66574529 751.55157043 49.1875 751.5 C112.898125 751.4175 176.60875 751.335 242.25 751.25 C242.25 540.05 242.25 328.85 242.25 111.25 C168.99 111.25 95.73 111.25 20.25 111.25 C20.37503906 133.89109375 20.50007812 156.5321875 20.62890625 179.859375 C20.67021705 194.29692647 20.70725323 208.73430415 20.72460938 223.171875 C20.73396531 230.7701845 20.74438585 238.36849139 20.7565918 245.96679688 C20.75807659 246.918739 20.75956138 247.87068113 20.76109117 248.85146999 C20.78640998 264.09454709 20.87149162 279.33670811 20.97979213 294.57939598 C21.09008627 310.29598939 21.13350911 326.01181043 21.11853737 341.72878671 C21.11197786 350.52640723 21.13376773 359.32182812 21.23260689 368.11894989 C21.6690398 408.43876246 19.90286137 442.86417134 4.12130642 480.65320206 C2.26305253 485.11508074 0.71190731 489.64494199 -0.75 494.25 C-1.14960938 495.50530518 -1.54921875 496.76061035 -1.9609375 498.05395508 C-2.34507812 499.28009521 -2.72921875 500.50623535 -3.125 501.76953125 C-3.77709452 503.83125943 -4.43053672 505.89255776 -5.08398438 507.95385742 C-5.53056648 509.36776126 -5.97454889 510.78248868 -6.41601562 512.19799805 C-7.06173921 514.26588497 -7.71741788 516.3303894 -8.375 518.39453125 C-8.75914062 519.61503174 -9.14328125 520.83553223 -9.5390625 522.09301758 C-10.65606555 525.00510759 -11.6226276 526.99135414 -13.75 529.25 C-16.58078091 530.19359364 -18.6690314 530.50819881 -21.625 530.625 C-22.46804688 530.67398437 -23.31109375 530.72296875 -24.1796875 530.7734375 C-27.98269935 529.99896396 -29.25797743 528.20197083 -31.75 525.25 C-33.16123983 522.38622886 -34.14272289 519.42451909 -35.125 516.390625 C-35.41681152 515.52798035 -35.70862305 514.66533569 -36.00927734 513.77655029 C-36.93678054 511.02214122 -37.84325984 508.26130411 -38.75 505.5 C-39.35808724 503.69097287 -39.96745154 501.88237449 -40.578125 500.07421875 C-43.56614589 491.17450412 -46.39292003 482.24370629 -48.99751282 473.2244873 C-50.96742381 466.42353023 -53.17659069 459.70954689 -55.4375 453 C-55.82744141 451.83082031 -56.21738281 450.66164063 -56.61914062 449.45703125 C-58.51581897 443.62080755 -58.51581897 443.62080755 -60.79451025 437.93118125 C-61.85000145 434.96938788 -62.00443499 432.71278098 -62.01171303 429.57473278 C-62.01917852 428.43615737 -62.02664401 427.29758196 -62.03433573 426.12450427 C-62.03143363 424.25534971 -62.03143363 424.25534971 -62.0284729 422.34843445 C-62.03347658 421.00768042 -62.03935259 419.66692942 -62.04602563 418.32618266 C-62.06183092 414.64335403 -62.0652566 410.96060167 -62.06667423 407.27774322 C-62.07036736 403.30572007 -62.0855224 399.33373881 -62.09928894 395.36174011 C-62.12156834 388.48045477 -62.13657753 381.59918432 -62.14665604 374.71787071 C-62.16123837 364.76863816 -62.18677395 354.81945747 -62.21498732 344.87025533 C-62.26046341 328.72854007 -62.29707485 312.58681734 -62.328125 296.44506836 C-62.35830719 280.76439096 -62.39265595 265.08373183 -62.43261719 249.40307617 C-62.43507874 248.43660322 -62.43754028 247.47013027 -62.44007643 246.47437026 C-62.45245096 241.62588417 -62.46490751 236.7773983 -62.47740483 231.92891252 C-62.58098487 191.70263366 -62.67018409 151.47633262 -62.75 111.25 C-73.59850035 111.13407363 -84.44685299 111.04526797 -95.29584694 110.99093914 C-100.33368456 110.96486189 -105.37109794 110.92949788 -110.40869141 110.87280273 C-115.27165258 110.8184164 -120.1342061 110.78856537 -124.99744797 110.77561378 C-126.85141796 110.7663858 -128.70536602 110.74836534 -130.55916214 110.72134972 C-133.15923254 110.68497061 -135.75762558 110.68005823 -138.35791016 110.68237305 C-139.12180054 110.66439667 -139.88569092 110.64642029 -140.67272949 110.62789917 C-146.48979575 110.68381596 -148.83207021 112.25252443 -152.75 116.25 Z " fill="#0E0E0E" transform="translate(432.75,102.75)"/>
<path d="M0 0 C72 0 72 0 78 4 C81.68350019 9.17429077 81.42149358 14.28091937 81.37752342 20.3886795 C81.38188374 21.4389083 81.38624407 22.4891371 81.39073652 23.57119101 C81.40172803 27.10785255 81.39125229 30.64412711 81.38095093 34.18078613 C81.38440594 36.73494177 81.38916944 39.28909592 81.39513266 41.84324694 C81.40597409 47.40548017 81.40563516 52.96762608 81.39799118 58.52986336 C81.38665526 66.80101633 81.39243893 75.07209548 81.4016161 83.34324794 C81.41742494 98.11450699 81.41603953 112.88572715 81.40737936 127.65698992 C81.39983783 140.58342897 81.39786019 153.50985375 81.4014473 166.43629456 C81.40167645 167.29316003 81.40190561 168.1500255 81.40214171 169.03285659 C81.4030757 172.51100165 81.40403089 175.9891467 81.405021 179.46729174 C81.41420157 212.10647757 81.40587195 244.74563859 81.38973031 277.38482059 C81.3754931 306.39376737 81.37676696 335.40267465 81.39111328 364.41162109 C81.40717116 396.99045083 81.41355053 429.56925865 81.40427649 462.14809179 C81.40331431 465.61996301 81.40237579 469.09183422 81.4014473 472.56370544 C81.40121006 473.41859205 81.40097283 474.27347866 81.40072841 475.15427092 C81.3973135 488.07376495 81.40131145 500.99324315 81.40888596 513.91273499 C81.41745399 528.60023077 81.41534007 543.28768153 81.39904372 557.97517169 C81.39022047 566.19902206 81.38968051 574.42277497 81.40098225 582.64662286 C81.40848147 588.77891253 81.40037566 594.91108662 81.38605852 601.04336208 C81.38269419 603.53048547 81.38444158 606.01762184 81.39168589 608.50473696 C81.40074988 611.87378701 81.39151087 615.24229899 81.37752342 618.6113205 C81.38454692 619.58693316 81.39157042 620.56254582 81.39880675 621.5677225 C81.35510618 626.79995071 80.95252665 630.48755862 78 635 C58.67973112 652.87124871 15.4414969 640 0 640 C0 428.8 0 217.6 0 0 Z " fill="#FBFBFB" transform="translate(705,214)"/>
<path d="M0 0 C10.23 0 20.46 0 31 0 C31 116.82 31 233.64 31 354 C20.77 354 10.54 354 0 354 C0 237.18 0 120.36 0 0 Z " fill="#FDFDFD" transform="translate(396,168)"/>
<path d="M0 0 C4.41026006 2.45014448 7.08812558 5.30125117 9.375 9.875 C9.375 12.845 9.375 15.815 9.375 18.875 C-1.185 18.875 -11.745 18.875 -22.625 18.875 C-22.625 7.875 -22.625 7.875 -20.5625 4.375 C-14.12569709 -1.10313014 -8.07228245 -2.5051911 0 0 Z " fill="#F6F6F6" transform="translate(418.625,124.125)"/>
<path d="M0 0 C2.701875 -0.061875 5.40375 -0.12375 8.1875 -0.1875 C9.02949951 -0.21481201 9.87149902 -0.24212402 10.73901367 -0.27026367 C15.31952096 -0.32089807 18.28298447 0.01917007 22 3 C23.59273144 6.18546289 23.10141833 9.63199348 23.0625 13.125 C23.041875 15.72375 23.02125 18.3225 23 21 C15.41 21 7.82 21 0 21 C0 14.07 0 7.14 0 0 Z " fill="#F5F5F5" transform="translate(453,168)"/>
<path d="M0 0 C7.59 0 15.18 0 23 0 C19.625 11.25 19.625 11.25 17.95703125 16.0078125 C17.60576172 17.01328125 17.25449219 18.01875 16.89257812 19.0546875 C16.53615234 20.06789063 16.17972656 21.08109375 15.8125 22.125 C15.44447266 23.176875 15.07644531 24.22875 14.69726562 25.3125 C13.80014644 27.87569766 12.90102729 30.4381741 12 33 C9.40205603 30.40205603 8.80911113 28.00875183 7.6171875 24.53125 C7.39805695 23.89513794 7.17892639 23.25902588 6.95315552 22.6036377 C6.49154182 21.25965996 6.03277795 19.91470051 5.57666016 18.56884766 C4.87694428 16.50573273 4.16774513 14.44606756 3.45703125 12.38671875 C0 2.29190889 0 2.29190889 0 0 Z " fill="#F7F7F7" transform="translate(400,547)"/>
<path d="M0 0 C0.66 0.33 1.32 0.66 2 1 C0.38405168 3.04119788 -1.2856382 5.04072937 -3 7 C-3.66 7 -4.32 7 -5 7 C-3.70700306 4.11562221 -2.34058637 2.12780579 0 0 Z " fill="#1E1E1F" transform="translate(223,402)"/>
</svg>
